<?xml version="1.0" encoding="UTF-8" standalone="no"?>
<svg
   xmlns:dc="http://purl.org/dc/elements/1.1/"
   xmlns:cc="http://creativecommons.org/ns#"
   xmlns:rdf="http://www.w3.org/1999/02/22-rdf-syntax-ns#"
   xmlns:svg="http://www.w3.org/2000/svg"
   xmlns="http://www.w3.org/2000/svg"
   version="1.1"
   id="Warstwa_1"
   x="0px"
   y="0px"
   viewBox="0 0 169.9 70.2"
   style="enable-background:new 0 0 169.9 70.2;"
   xml:space="preserve"><metadata
     id="metadata916"><rdf:RDF><cc:Work
         rdf:about=""><dc:format>image/svg+xml</dc:format><dc:type
           rdf:resource="http://purl.org/dc/dcmitype/StillImage" /><dc:title></dc:title></cc:Work></rdf:RDF></metadata><defs
     id="defs914" /><style
     type="text/css"
     id="style903">
	.st0{fill-rule:evenodd;clip-rule:evenodd;fill:#FF3388;}
	.st1{fill:#050713;}
	.st2{fill:#6D7A99;}
</style><g
     id="GraphQL-Tools_x2F_-Scalars"><g
   id="Libraries-Logos-_x2F_-Scalars"
   transform="translate(6.000000, 20.000000)"><path
     id="Fill-2"
     class="st0"
     d="M32.4,42.9c0,0.3,0,0.5-0.1,0.7c0,0,0,0.1,0,0.1c-0.4,2.3-2.4,4-4.8,4c-2.1,0-4-1.4-4.6-3.3    L2.7,32.8c-2-1.2-3.2-3.3-3.2-5.6V7.4C0.2,7.7,1,7.8,1.8,7.8c0.7,0,1.5-0.1,2.2-0.3v19.7c0,0.7,0.4,1.3,1,1.7l18.9,10.9    c0.9-1,2.2-1.7,3.7-1.7c1.6,0,3,0.8,3.9,2c0,0,0,0,0,0.1c0.1,0.1,0.1,0.2,0.2,0.3c0,0,0,0.1,0.1,0.1c0,0.1,0.1,0.2,0.1,0.3    c0,0,0,0.1,0.1,0.1c0,0.1,0.1,0.2,0.1,0.3c0,0.1,0,0.1,0.1,0.2c0,0.1,0.1,0.2,0.1,0.2c0,0.1,0,0.2,0.1,0.2c0,0.1,0,0.1,0,0.2    c0,0.1,0,0.2,0,0.3c0,0.1,0,0.1,0,0.2C32.4,42.6,32.4,42.8,32.4,42.9L32.4,42.9z M57.3,0.3c0,1.5-0.6,2.8-1.7,3.7v23.1    c0,2.3-1.2,4.5-3.2,5.6L35,42.8c0-1.6-0.6-3.2-1.5-4.4l16.6-9.6c0.6-0.3,1-1,1-1.7V5c-2-0.6-3.5-2.5-3.5-4.7c0-1.1,0.4-2.1,1-2.9    c0,0,0,0,0,0c0.1-0.1,0.2-0.3,0.4-0.4l0,0c0.3-0.3,0.6-0.5,0.9-0.7c0,0,0.1,0,0.1-0.1C50-3.9,50.2-4,50.3-4.1c0,0,0.1,0,0.1-0.1    c0.2-0.1,0.3-0.1,0.5-0.2c0,0,0,0,0,0c0.5-0.1,1-0.2,1.5-0.2C55.1-4.5,57.3-2.4,57.3,0.3L57.3,0.3z M-0.5,4.6C-2,3.7-3,2.2-3,0.3    c0-2.7,2.2-4.9,4.9-4.9c0.7,0,1.4,0.2,2,0.4L24.3-16c1-0.6,2.1-0.9,3.2-0.9c1.1,0,2.2,0.3,3.2,0.9L48.3-5.9C47-5,46-3.7,45.4-2.3    l-16.9-9.8c-0.3-0.2-0.6-0.3-1-0.3c-0.3,0-0.7,0.1-1,0.3L6.6-0.5c0,0.3,0.1,0.6,0.1,0.8c0,2.1-1.3,3.9-3.2,4.6c0,0,0,0,0,0    C3.3,5,3.2,5,3,5.1c0,0-0.1,0-0.1,0c-0.1,0-0.3,0.1-0.4,0.1c0,0-0.1,0-0.1,0c-0.2,0-0.4,0-0.5,0c-0.2,0-0.4,0-0.6,0    c-0.1,0-0.1,0-0.2,0C1,5.1,0.8,5.1,0.7,5.1c0,0-0.1,0-0.1,0C0.2,4.9-0.2,4.8-0.5,4.6L-0.5,4.6z"
     style="fill:#03a9f4;fill-opacity:1" /><path
     id="path982"
     d="m 4.618642,13.979874 c -0.524674,0.415779 -0.5692217,1.192888 -0.094051,1.668065 l 1.5938187,1.603718 c 0.4009296,0.400929 1.0295475,0.445477 1.4799759,0.103945 0.2771852,-0.207889 0.638516,-0.460327 1.0641943,-0.727613 l 15.4580661,15.45806 c -0.262337,0.42073 -0.509824,0.796911 -0.722663,1.069147 -0.341533,0.450427 -0.301935,1.083995 0.103944,1.479974 l 1.603718,1.593819 c 0.475176,0.475175 1.257236,0.435577 1.668065,-0.09405 1.648267,-2.103643 5.11804,-7.65231 4.395376,-16.165875 -1.484924,-0.257388 -3.034195,-0.638518 -4.647812,-1.143392 0.0792,0.534573 0.099,1.029547 0.138593,1.544321 l -6.315879,-6.315879 c 1.950201,0.158393 4.088491,0.564272 6.439622,1.351282 12.75055,4.286481 20.912683,-0.747411 23.570697,-2.831255 0.524674,-0.415779 0.569221,-1.192889 0.09405,-1.668065 L 48.849584,9.2974082 C 48.448654,8.8964779 47.820036,8.8519313 47.369609,9.1934629 47.092423,9.4013522 46.731091,9.6537902 46.305413,9.9210762 L 30.842402,-5.5419306 c 0.267287,-0.4256775 0.514774,-0.7820592 0.727613,-1.0641959 0.341532,-0.450427 0.301935,-1.0839939 -0.103944,-1.4799737 l -1.603718,-1.593818 c -0.475176,-0.4751758 -1.257236,-0.4355788 -1.673015,0.089096 -1.866055,2.3808279 -6.06839,9.16693203 -3.870703,19.6999943 C 13.790523,7.9164329 6.9994689,12.113819 4.618642,13.979874 Z m 24.66954,-2.504572 C 28.72391,9.5547992 28.397227,7.7728909 28.263584,6.1345242 L 34.62401,12.49495 c -1.633417,-0.128693 -3.420276,-0.450427 -5.335828,-1.019648 z m 12.607007,0.371231 c -0.801859,0.227689 -1.677965,0.410829 -2.623366,0.544472 L 28.377428,1.4966111 c 0.128694,-0.95035085 0.311834,-1.82645687 0.544472,-2.6233672 z m -28.81743,2.860954 c 0.80186,-0.227688 1.677966,-0.410829 2.623367,-0.544473 L 26.560871,25.02276 c -0.128693,0.950351 -0.306884,1.831407 -0.534573,2.633266 z"
     style="stroke-width:0.07;fill:#03a9f4;fill-opacity:1" /></g><path
   id="GraphQL"
   class="st2"
   d="M74.9,24.2H77v0.2c-0.4,0.6-1.1,1-1.8,1c-1.3,0-2.3-1-2.3-2.3s1-2.3,2.3-2.3   c0.7,0,1.4,0.3,1.8,0.9l1.8-1.2c-0.8-1.1-2.2-1.8-3.6-1.8c-2.5,0-4.6,2-4.6,4.5s2.1,4.5,4.6,4.5c0.9,0,1.7-0.3,2.2-1v0.8h1.7v-5   h-4.1V24.2z M82.7,18.8v8.6h2.2v-2.3H86l1.6,2.3h2.6l-1.9-2.6c1.2-0.5,1.7-1.6,1.7-2.8c0-1.7-1-3.1-3.2-3.1H82.7z M86.7,20.8   c0.9,0,1.2,0.5,1.2,1.2c0,0.6-0.3,1.1-1.2,1.1h-1.9v-2.3H86.7z M96.2,18.8l-3.5,8.6h2.4l0.5-1.3H99l0.5,1.3h2.4l-3.5-8.6H96.2z    M98.3,24.2h-1.9l0.9-2.5L98.3,24.2z M105,27.4h2.2v-1.9h1.6c2.3,0,3.4-1.5,3.4-3.3c0-1.7-1.1-3.3-3.4-3.3H105V27.4z M108.7,20.8   c0.9,0,1.3,0.6,1.3,1.3c0,0.8-0.3,1.3-1.3,1.3h-1.5v-2.6H108.7z M121.2,18.8v3.3h-3.5v-3.3h-2.2v8.6h2.2v-3.2h3.5v3.2h2.2v-8.6   H121.2z M126.8,23.1c0,2.2,1.7,4,3.8,4.4c1.5,0.5,2.5,2,4.2,2c0.8,0,1.8-0.3,2.4-1.2l-1.7-1.3c-0.2,0.4-0.6,0.4-0.7,0.4   c-0.4,0-0.7-0.2-1.1-0.5c1.3-0.8,2.2-2.2,2.2-3.8c0-2.5-2-4.5-4.6-4.5C128.9,18.7,126.8,20.7,126.8,23.1z M129.1,23.1   c0-1.3,1-2.3,2.3-2.3c1.3,0,2.3,1,2.3,2.3s-1,2.3-2.3,2.3C130.1,25.5,129.1,24.4,129.1,23.1z M139.4,27.4v-8.6h2.2v6.5h4.1v2.1   H139.4z" /><g
   aria-label="HELIX"
   id="text847"
   style="font-style:normal;font-variant:normal;font-weight:bold;font-stretch:normal;font-size:17.3333px;line-height:1.25;font-family:'Lulo Clean W01 One';-inkscape-font-specification:'Lulo Clean W01 One, Bold';font-variant-ligatures:normal;font-variant-caps:normal;font-variant-numeric:normal;font-feature-settings:normal;text-align:start;letter-spacing:0px;word-spacing:0px;writing-mode:lr-tb;text-anchor:start;fill:#000000;fill-opacity:1;stroke:none"><path
     d="m 83.150297,37.323807 v 13.52 H 79.68363 V 45.81714 h -5.512 v 5.026667 h -3.449333 v -13.52 h 3.449333 v 5.252 h 5.512 v -5.252 z"
     style="font-style:normal;font-variant:normal;font-weight:bold;font-stretch:normal;font-size:17.3333px;font-family:'Lulo Clean W01 One';-inkscape-font-specification:'Lulo Clean W01 One, Bold';font-variant-ligatures:normal;font-variant-caps:normal;font-variant-numeric:normal;font-feature-settings:normal;text-align:start;writing-mode:lr-tb;text-anchor:start"
     id="path399" /><path
     d="m 89.206672,37.323807 h 10.382667 v 3.362667 h -6.916 v 1.941333 h 5.685333 v 3.137333 h -5.685333 v 1.733334 h 6.916 v 3.345333 H 89.206672 Z"
     style="font-style:normal;font-variant:normal;font-weight:bold;font-stretch:normal;font-size:17.3333px;font-family:'Lulo Clean W01 One';-inkscape-font-specification:'Lulo Clean W01 One, Bold';font-variant-ligatures:normal;font-variant-caps:normal;font-variant-numeric:normal;font-feature-settings:normal;text-align:start;writing-mode:lr-tb;text-anchor:start"
     id="path401" /><path
     d="m 105.25355,37.323807 h 3.44933 v 10.174667 h 6.48267 v 3.345333 h -9.932 z"
     style="font-style:normal;font-variant:normal;font-weight:bold;font-stretch:normal;font-size:17.3333px;font-family:'Lulo Clean W01 One';-inkscape-font-specification:'Lulo Clean W01 One, Bold';font-variant-ligatures:normal;font-variant-caps:normal;font-variant-numeric:normal;font-feature-settings:normal;text-align:start;writing-mode:lr-tb;text-anchor:start"
     id="path403" /><path
     d="m 123.92074,37.323807 v 13.52 h -3.46667 v -13.52 z"
     style="font-style:normal;font-variant:normal;font-weight:bold;font-stretch:normal;font-size:17.3333px;font-family:'Lulo Clean W01 One';-inkscape-font-specification:'Lulo Clean W01 One, Bold';font-variant-ligatures:normal;font-variant-caps:normal;font-variant-numeric:normal;font-feature-settings:normal;text-align:start;writing-mode:lr-tb;text-anchor:start"
     id="path405" /><path
     d="m 142.23828,37.323807 -4.54133,6.725333 4.64533,6.794667 h -4.212 l -2.51333,-3.709333 -2.496,3.709333 h -4.212 l 4.64533,-6.794667 -4.54133,-6.725333 h 4.09066 l 2.51334,3.692 2.53066,-3.692 z"
     style="font-style:normal;font-variant:normal;font-weight:bold;font-stretch:normal;font-size:17.3333px;font-family:'Lulo Clean W01 One';-inkscape-font-specification:'Lulo Clean W01 One, Bold';font-variant-ligatures:normal;font-variant-caps:normal;font-variant-numeric:normal;font-feature-settings:normal;text-align:start;writing-mode:lr-tb;text-anchor:start"
     id="path407" /></g>
</g></svg>
