<?xml version="1.0" encoding="UTF-8" standalone="no"?>
<svg
   xmlns:dc="http://purl.org/dc/elements/1.1/"
   xmlns:cc="http://creativecommons.org/ns#"
   xmlns:rdf="http://www.w3.org/1999/02/22-rdf-syntax-ns#"
   xmlns:svg="http://www.w3.org/2000/svg"
   xmlns="http://www.w3.org/2000/svg"
   xmlns:sodipodi="http://sodipodi.sourceforge.net/DTD/sodipodi-0.dtd"
   xmlns:inkscape="http://www.inkscape.org/namespaces/inkscape"
   version="1.1"
   id="Warstwa_1"
   x="0px"
   y="0px"
   viewBox="0 0 150 160.69652"
   xml:space="preserve"
   sodipodi:docname="logo.svg"
   width="39.6875mm"
   height="42.51762mm"
   inkscape:version="1.0.1 (c497b03c, 2020-09-10)"><sodipodi:namedview
     pagecolor="#ffffff"
     bordercolor="#666666"
     borderopacity="1"
     objecttolerance="10"
     gridtolerance="10"
     guidetolerance="10"
     inkscape:pageopacity="0"
     inkscape:pageshadow="2"
     inkscape:window-width="1920"
     inkscape:window-height="1027"
     id="namedview848"
     showgrid="false"
     inkscape:zoom="1.6552944"
     inkscape:cx="203.46808"
     inkscape:cy="156.43154"
     inkscape:window-x="0"
     inkscape:window-y="144"
     inkscape:window-maximized="0"
     inkscape:current-layer="GraphQL-Tools_x2F_-Scalars"
     units="mm"
     width="80in"
     fit-margin-top="0"
     fit-margin-left="0"
     fit-margin-right="0"
     fit-margin-bottom="0" /><metadata
     id="metadata916"><rdf:RDF><cc:Work
         rdf:about=""><dc:format>image/svg+xml</dc:format><dc:type
           rdf:resource="http://purl.org/dc/dcmitype/StillImage" /><dc:title></dc:title></cc:Work></rdf:RDF></metadata><defs
     id="defs914" /><style
     type="text/css"
     id="style903">
	.st0{fill-rule:evenodd;clip-rule:evenodd;fill:#FF3388;}
	.st1{fill:#050713;}
	.st2{fill:#6D7A99;}
</style><g
     id="GraphQL-Tools_x2F_-Scalars"
     transform="translate(-0.7314361,-0.07938882)"><g
   id="Libraries-Logos-_x2F_-Scalars"
   transform="matrix(2.4875622,0,0,2.4875622,8.1941227,42.11919)"><path
     id="Fill-2"
     class="st0"
     d="m 32.4,42.9 c 0,0.3 0,0.5 -0.1,0.7 0,0 0,0.1 0,0.1 -0.4,2.3 -2.4,4 -4.8,4 -2.1,0 -4,-1.4 -4.6,-3.3 L 2.7,32.8 c -2,-1.2 -3.2,-3.3 -3.2,-5.6 V 7.4 C 0.2,7.7 1,7.8 1.8,7.8 2.5,7.8 3.3,7.7 4,7.5 v 19.7 c 0,0.7 0.4,1.3 1,1.7 l 18.9,10.9 c 0.9,-1 2.2,-1.7 3.7,-1.7 1.6,0 3,0.8 3.9,2 0,0 0,0 0,0.1 0.1,0.1 0.1,0.2 0.2,0.3 0,0 0,0.1 0.1,0.1 0,0.1 0.1,0.2 0.1,0.3 0,0 0,0.1 0.1,0.1 0,0.1 0.1,0.2 0.1,0.3 0,0.1 0,0.1 0.1,0.2 0,0.1 0.1,0.2 0.1,0.2 0,0.1 0,0.2 0.1,0.2 0,0.1 0,0.1 0,0.2 0,0.1 0,0.2 0,0.3 0,0.1 0,0.1 0,0.2 0,0 0,0.2 0,0.3 z M 57.3,0.3 c 0,1.5 -0.6,2.8 -1.7,3.7 v 23.1 c 0,2.3 -1.2,4.5 -3.2,5.6 L 35,42.8 c 0,-1.6 -0.6,-3.2 -1.5,-4.4 l 16.6,-9.6 c 0.6,-0.3 1,-1 1,-1.7 V 5 c -2,-0.6 -3.5,-2.5 -3.5,-4.7 0,-1.1 0.4,-2.1 1,-2.9 0,0 0,0 0,0 0.1,-0.1 0.2,-0.3 0.4,-0.4 v 0 c 0.3,-0.3 0.6,-0.5 0.9,-0.7 0,0 0.1,0 0.1,-0.1 0,-0.1 0.2,-0.2 0.3,-0.3 0,0 0.1,0 0.1,-0.1 0.2,-0.1 0.3,-0.1 0.5,-0.2 0,0 0,0 0,0 0.5,-0.1 1,-0.2 1.5,-0.2 2.7,0.1 4.9,2.2 4.9,4.9 z M -0.5,4.6 C -2,3.7 -3,2.2 -3,0.3 c 0,-2.7 2.2,-4.9 4.9,-4.9 0.7,0 1.4,0.2 2,0.4 L 24.3,-16 c 1,-0.6 2.1,-0.9 3.2,-0.9 1.1,0 2.2,0.3 3.2,0.9 L 48.3,-5.9 C 47,-5 46,-3.7 45.4,-2.3 l -16.9,-9.8 c -0.3,-0.2 -0.6,-0.3 -1,-0.3 -0.3,0 -0.7,0.1 -1,0.3 L 6.6,-0.5 c 0,0.3 0.1,0.6 0.1,0.8 0,2.1 -1.3,3.9 -3.2,4.6 0,0 0,0 0,0 C 3.3,5 3.2,5 3,5.1 c 0,0 -0.1,0 -0.1,0 -0.1,0 -0.3,0.1 -0.4,0.1 0,0 -0.1,0 -0.1,0 -0.2,0 -0.4,0 -0.5,0 -0.2,0 -0.4,0 -0.6,0 -0.1,0 -0.1,0 -0.2,0 C 1,5.1 0.8,5.1 0.7,5.1 c 0,0 -0.1,0 -0.1,0 C 0.2,4.9 -0.2,4.8 -0.5,4.6 Z"
     style="fill:#03a9f4;fill-opacity:1" /><path
     id="path982"
     d="m 4.618642,13.979874 c -0.524674,0.415779 -0.5692217,1.192888 -0.094051,1.668065 l 1.5938187,1.603718 c 0.4009296,0.400929 1.0295475,0.445477 1.4799759,0.103945 0.2771852,-0.207889 0.638516,-0.460327 1.0641943,-0.727613 l 15.4580661,15.45806 c -0.262337,0.42073 -0.509824,0.796911 -0.722663,1.069147 -0.341533,0.450427 -0.301935,1.083995 0.103944,1.479974 l 1.603718,1.593819 c 0.475176,0.475175 1.257236,0.435577 1.668065,-0.09405 1.648267,-2.103643 5.11804,-7.65231 4.395376,-16.165875 -1.484924,-0.257388 -3.034195,-0.638518 -4.647812,-1.143392 0.0792,0.534573 0.099,1.029547 0.138593,1.544321 l -6.315879,-6.315879 c 1.950201,0.158393 4.088491,0.564272 6.439622,1.351282 12.75055,4.286481 20.912683,-0.747411 23.570697,-2.831255 0.524674,-0.415779 0.569221,-1.192889 0.09405,-1.668065 L 48.849584,9.2974082 C 48.448654,8.8964779 47.820036,8.8519313 47.369609,9.1934629 47.092423,9.4013522 46.731091,9.6537902 46.305413,9.9210762 L 30.842402,-5.5419306 c 0.267287,-0.4256775 0.514774,-0.7820592 0.727613,-1.0641959 0.341532,-0.450427 0.301935,-1.0839939 -0.103944,-1.4799737 l -1.603718,-1.593818 c -0.475176,-0.4751758 -1.257236,-0.4355788 -1.673015,0.089096 -1.866055,2.3808279 -6.06839,9.16693203 -3.870703,19.6999942 C 13.790523,7.9164329 6.9994689,12.113819 4.618642,13.979874 Z m 24.66954,-2.504572 C 28.72391,9.5547992 28.397227,7.7728909 28.263584,6.1345242 L 34.62401,12.49495 c -1.633417,-0.128693 -3.420276,-0.450427 -5.335828,-1.019648 z m 12.607007,0.371231 c -0.801859,0.227689 -1.677965,0.410829 -2.623366,0.544472 L 28.377428,1.4966111 c 0.128694,-0.95035085 0.311834,-1.82645687 0.544472,-2.6233672 z m -28.81743,2.860954 c 0.80186,-0.227688 1.677966,-0.410829 2.623367,-0.544473 L 26.560871,25.02276 c -0.128693,0.950351 -0.306884,1.831407 -0.534573,2.633266 z"
     style="fill:#03a9f4;fill-opacity:1;stroke-width:0.07" /></g>
</g></svg>
